
        <svg width="3206.9779252181074" height="1456.1727733197572" xmlns="http://www.w3.org/2000/svg" xmlns:xlink="http://www.w3.org/1999/xlink" version="1.1">
            <rect fill="#000000" width="3206.9779252181074" height="1456.1727733197572"/>
            <g transform="scale(10.348896260905377) translate(10, 10)">
                <g id="main_text" rel="mainfill" name="main_text" xmlns:name="mainText_mainfill" fill="#ffffff" transform="translate(113.31000006198883, -29.511995315551758)"><path d="M1.86 35.588 c-0.62 -0.124 -0.93 -0.124 -1.364 -0.186 c-0.434 -0.186 -0.806 -0.558 -0.744 -0.992 c0 -0.31 0.372 -0.744 0.744 -0.868 c0.744 -0.434 1.674 -0.744 2.542 -1.116 c1.736 -0.558 3.472 -0.744 5.27 -0.682 c1.86 0.186 3.596 0.62 4.712 2.232 c2.604 3.472 0.868 8.122 -1.55 11.16 c-0.31 0.372 -0.31 0.558 0.124 0.62 l0.434 0 c1.55 0 2.852 0.496 4.154 1.24 c4.774 2.48 2.542 8.37 -0.062 11.408 c-1.302 1.55 -3.1 2.418 -5.022 2.976 c-0.248 0 -0.682 -0.248 -0.868 -0.124 s-0.248 0.496 -0.62 0.496 c-0.682 0 -1.426 0 -2.17 -0.062 c-0.682 0 -1.24 0 -1.798 -0.558 c-0.062 -0.062 -0.248 -0.062 -0.434 -0.062 c-0.496 0.062 -0.868 -0.248 -1.302 -0.558 c-2.418 -1.116 -2.046 -6.448 -2.17 -8.618 c-0.124 -4.65 -0.434 -9.362 -0.434 -14.074 c0 -0.248 0 -0.558 -0.062 -0.806 c0 -0.496 0 -1.054 0.62 -1.426 z M9.734 58.962 c0.682 0 1.302 -0.124 1.86 -0.496 c1.302 -0.868 2.108 -1.984 2.728 -3.348 c0.496 -1.054 0.868 -2.108 0.682 -3.41 c-0.186 -1.426 -1.24 -2.852 -2.666 -3.038 c-0.992 -0.062 -1.922 0.124 -2.976 0.124 c-0.31 0.062 -0.434 0.248 -0.434 0.62 c0.124 0.31 0.186 0.682 0.186 0.992 c0.186 2.17 0.248 4.34 0.372 6.51 c0.062 0.62 0.248 1.302 -0.372 1.736 c-0.062 0.062 0.062 0.31 0.186 0.31 c0.062 0.124 0.248 0 0.434 0 z M8.06 41.106 c0 0.62 0.124 1.426 0.186 2.294 c0 0.186 0.062 0.31 0.186 0.434 c0.062 -0.062 0.248 -0.124 0.248 -0.248 c1.612 -2.046 2.418 -4.402 1.798 -7.068 c-0.248 -1.054 -0.868 -1.736 -1.984 -1.984 c-0.062 0 -0.248 0.186 -0.248 0.248 c0 0.806 0.062 1.55 -0.062 2.232 c-0.31 1.302 0 2.604 -0.124 4.092 z M26.35 46.748 c0.682 -0.062 1.364 -0.062 2.046 -0.124 c0.372 0 0.558 0.124 0.744 0.434 c0.124 0.372 0.372 0.682 0.062 1.054 c-0.558 0.682 -1.116 1.364 -2.17 1.178 l-0.372 0 c-0.806 0 -1.054 0.372 -0.992 1.116 c0.124 1.178 0.124 2.418 0.186 3.596 c0.124 1.364 0.186 2.79 0.372 4.154 c0.124 0.806 0.186 0.806 0.93 0.682 c1.178 -0.248 2.418 -0.558 3.596 -0.806 c0.434 -0.124 0.93 -0.248 1.364 -0.31 c0.744 -0.186 1.178 0.31 1.612 0.744 c0.31 0.372 0.558 0.806 0.248 1.364 c-0.62 1.24 -1.364 1.922 -2.852 1.86 c-1.054 -0.062 -2.17 0.248 -3.224 0.434 c-0.992 0.186 -1.922 0.31 -2.852 0.496 c-0.248 0.062 -0.434 0.186 -0.62 0.31 c-0.248 0.186 -0.434 0.372 -0.682 0.558 c-0.372 0.434 -0.806 0.558 -1.426 0.31 c-1.364 -0.62 -1.922 -1.488 -2.046 -2.976 c-0.372 -3.472 0 -23.002 -0.93 -25.73 c-0.062 -0.558 -0.186 -1.178 -0.372 -1.674 c-0.248 -0.496 -0.062 -0.868 0.186 -1.178 c0.992 -1.178 2.294 -1.674 3.72 -1.86 c0.31 0 0.62 0.124 0.93 0.186 c0.558 0.124 1.116 0.372 1.736 0.372 c0.806 0 1.612 0.062 2.48 0.248 c0.806 0.248 1.674 0.186 2.542 0.248 c0.868 0 1.426 0.62 1.302 1.55 c-0.124 0.682 -1.24 1.55 -1.922 1.55 c-0.372 -0.062 -0.744 -0.186 -1.116 -0.248 c-1.054 -0.186 -2.17 -0.372 -3.224 -0.558 c-0.744 -0.124 -0.868 0 -0.868 0.744 c0.062 0.93 0.248 1.86 0.31 2.79 c0.124 1.55 0.186 3.162 0.248 4.712 c0.062 1.364 0.186 2.666 0.248 4.03 c0.062 0.682 0.062 0.682 0.806 0.744 z M34.038000000000004 61.318 c0.372 -2.17 0.806 -4.34 1.178 -6.51 c0.372 -1.798 0.744 -3.472 1.054 -5.332 c0.31 -0.744 2.914 -13.454 3.162 -14.88 c0.186 -0.62 0.062 -1.426 0.062 -2.17 c0 -1.364 0.682 -2.17 2.108 -2.542 c0.062 0 0.186 0 0.434 -0.062 c0.31 -0.124 0.682 -0.31 0.868 -0.186 c0.434 0.248 0.682 0.682 0.93 1.178 c0.186 0.434 0.31 0.992 0.682 1.426 c0.806 2.418 5.084 23.932 5.952 25.172 c0.186 0.744 0.434 1.364 0.744 1.922 c0.186 0.496 -0.496 1.798 -0.93 1.984 c-0.248 0.062 -0.682 0.186 -0.868 0.372 c-0.434 0.31 -0.93 0.434 -1.302 0 c-0.248 -0.186 -0.682 -0.372 -0.992 -0.558 c-0.248 -0.186 -0.434 -0.62 -0.496 -0.868 c-0.93 -2.542 -1.364 -4.96 -2.108 -7.44 c-0.248 -0.434 -0.496 -0.806 -0.992 -0.62 c-0.62 0.062 -1.24 0.186 -1.922 0.186 c-0.62 0 -0.806 0.186 -0.992 0.62 c-0.31 1.798 -0.868 3.596 -1.364 5.332 c-0.062 0.62 -0.186 1.178 -0.062 1.674 c0.186 1.55 -0.806 2.418 -1.674 3.224 c-0.248 0.186 -0.62 0.248 -0.868 0.248 c-1.054 -0.062 -1.798 -0.682 -2.418 -1.55 c-0.124 -0.248 -0.124 -0.434 -0.124 -0.62 l-0.062 0 z M42.346000000000004 42.718 l-0.248 0 c0 0.372 -0.062 0.62 -0.248 0.992 c-0.062 1.55 -0.31 3.162 -0.31 4.588 c-0.124 1.178 0.062 1.302 1.24 1.302 c0.806 0 0.93 -0.124 0.744 -0.93 c-0.124 -0.62 -0.186 -1.364 -0.434 -2.108 c-0.186 -1.302 -0.434 -2.604 -0.744 -3.844 z M52.514 60.512 c-0.248 -6.634 -0.124 -13.454 -0.868 -20.088 c-0.124 -1.178 -0.248 -2.418 -0.372 -3.596 c-0.062 -0.93 -0.062 -0.992 -0.93 -1.116 c-1.116 -0.186 -3.72 0.062 -4.278 -1.178 c-0.186 -0.558 0 -1.24 0.372 -1.736 c1.426 -1.736 4.092 -1.798 6.138 -1.674 c2.356 0.062 4.65 0.124 7.068 0.124 c0.62 0 1.24 0 1.798 0.248 c0.868 0.372 0.992 0.744 0.744 1.736 c-0.062 0.372 -0.248 0.744 -0.31 1.116 c-0.186 1.178 -1.054 1.364 -2.046 1.364 c-0.806 0.062 -1.612 0 -2.418 0.062 s-0.868 0.062 -0.744 0.93 c0.186 1.736 0.372 3.472 0.62 5.208 c0.806 7.068 0.248 10.726 0.868 17.794 c0.434 4.898 -6.572 3.162 -5.642 0.806 z M61.194 54.312 c-0.186 -1.24 0.496 -1.922 1.488 -2.418 c0.62 -0.372 1.24 -0.62 1.922 -0.186 s1.302 0.93 1.178 1.922 c-0.062 0.682 0.062 1.426 0.062 2.17 c0 0.806 0.248 1.426 0.93 1.86 c0.124 0 0.434 -0.124 0.434 -0.186 c0.062 -0.434 0.124 -0.93 0.124 -1.364 c-0.062 -1.674 -0.062 -3.348 -0.31 -4.96 c-0.31 -2.17 -0.744 -4.34 -2.17 -6.076 c-1.116 -1.364 -2.108 -2.79 -3.224 -4.092 c-2.852 -3.41 -0.806 -8.122 2.418 -10.292 c1.55 -1.054 2.666 -1.178 4.464 -0.744 c0.31 0.062 0.682 0.124 0.992 0.124 c0.682 0.062 1.612 0.806 1.736 1.302 c0.186 0.558 -0.31 1.736 -0.744 2.17 c-0.682 0.62 -1.364 0.806 -2.17 0.434 c-0.186 -0.062 -0.372 -0.062 -0.558 -0.124 c-1.364 -0.248 -1.86 0.124 -2.046 1.488 c-0.372 3.162 1.922 4.464 3.534 6.758 c1.798 2.604 2.914 5.642 3.41 8.804 c0.31 1.922 0.62 3.844 0.434 5.828 c-0.186 1.736 -0.868 3.41 -1.984 4.774 c-1.426 1.86 -4.092 1.24 -5.952 0.434 c-3.348 -1.488 -3.72 -4.34 -3.968 -7.626 z  M82.46 35.588 c-0.62 -0.124 -0.93 -0.124 -1.364 -0.186 c-0.434 -0.186 -0.806 -0.558 -0.744 -0.992 c0 -0.31 0.372 -0.744 0.744 -0.868 c0.744 -0.434 1.674 -0.744 2.542 -1.116 c1.736 -0.558 3.472 -0.744 5.27 -0.682 c1.86 0.186 3.596 0.62 4.712 2.232 c2.604 3.472 0.868 8.122 -1.55 11.16 c-0.31 0.372 -0.31 0.558 0.124 0.62 l0.434 0 c1.55 0 2.852 0.496 4.154 1.24 c4.774 2.48 2.542 8.37 -0.062 11.408 c-1.302 1.55 -3.1 2.418 -5.022 2.976 c-0.248 0 -0.682 -0.248 -0.868 -0.124 s-0.248 0.496 -0.62 0.496 c-0.682 0 -1.426 0 -2.17 -0.062 c-0.682 0 -1.24 0 -1.798 -0.558 c-0.062 -0.062 -0.248 -0.062 -0.434 -0.062 c-0.496 0.062 -0.868 -0.248 -1.302 -0.558 c-2.418 -1.116 -2.046 -6.448 -2.17 -8.618 c-0.124 -4.65 -0.434 -9.362 -0.434 -14.074 c0 -0.248 0 -0.558 -0.062 -0.806 c0 -0.496 0 -1.054 0.62 -1.426 z M90.33399999999999 58.962 c0.682 0 1.302 -0.124 1.86 -0.496 c1.302 -0.868 2.108 -1.984 2.728 -3.348 c0.496 -1.054 0.868 -2.108 0.682 -3.41 c-0.186 -1.426 -1.24 -2.852 -2.666 -3.038 c-0.992 -0.062 -1.922 0.124 -2.976 0.124 c-0.31 0.062 -0.434 0.248 -0.434 0.62 c0.124 0.31 0.186 0.682 0.186 0.992 c0.186 2.17 0.248 4.34 0.372 6.51 c0.062 0.62 0.248 1.302 -0.372 1.736 c-0.062 0.062 0.062 0.31 0.186 0.31 c0.062 0.124 0.248 0 0.434 0 z M88.66 41.106 c0 0.62 0.124 1.426 0.186 2.294 c0 0.186 0.062 0.31 0.186 0.434 c0.062 -0.062 0.248 -0.124 0.248 -0.248 c1.612 -2.046 2.418 -4.402 1.798 -7.068 c-0.248 -1.054 -0.868 -1.736 -1.984 -1.984 c-0.062 0 -0.248 0.186 -0.248 0.248 c0 0.806 0.062 1.55 -0.062 2.232 c-0.31 1.302 0 2.604 -0.124 4.092 z M105.95799999999998 50.964 c0.062 1.488 0.062 2.976 0.124 4.464 c0.062 1.612 0.248 3.162 0.31 4.774 c0 1.488 -0.372 2.046 -1.488 3.038 c-0.868 0.806 -1.736 0.434 -2.48 -0.186 c-0.558 -0.496 -1.178 -0.992 -1.674 -1.612 c-0.124 -0.186 -0.186 -0.558 -0.124 -0.806 c0.31 -0.93 0.062 -2.914 0.062 -2.914 s-1.24 -15.314 -0.62 -22.878 c0 -0.496 0.62 -0.992 1.054 -1.364 c0.434 -0.31 0.558 -0.496 0.248 -0.992 c-0.248 -0.31 -0.496 -0.93 -0.372 -1.116 c0.31 -0.372 0.806 -0.682 1.302 -0.806 c1.612 -0.434 3.286 -0.434 4.898 0.124 c0.992 0.372 1.922 0.868 2.79 1.364 c4.588 2.542 5.27 8.184 2.294 12.09 c-0.31 0.434 -0.806 0.744 -1.116 1.24 c-0.186 0.372 -0.248 0.868 -0.186 1.302 c0.496 2.232 1.054 4.402 1.488 6.634 c0.744 3.596 1.302 7.254 1.984 10.85 c0.186 0.682 0.496 1.364 0.682 2.108 c0.248 0.744 0.186 1.24 -0.62 1.798 c-2.046 1.55 -3.906 1.24 -5.27 -1.054 c-1.178 -2.108 -0.744 -4.774 -1.178 -7.006 c-0.62 -2.914 -1.24 -5.828 -1.798 -8.742 l-0.186 -0.372 c-0.062 0 -0.062 0 -0.124 0.062 z M109.49199999999999 39.804 c0 -0.186 0 -0.62 -0.124 -0.992 c-0.186 -0.744 -0.558 -1.55 -0.682 -2.294 c-0.124 -0.93 -0.62 -1.488 -1.426 -1.86 c-0.434 -0.186 -0.93 -0.372 -1.364 -0.558 c-0.372 -0.124 -0.558 0 -0.496 0.434 c0 0.682 0.062 1.302 0.062 1.984 c0.062 2.356 0.186 4.712 0.248 7.068 c0 0.62 0.124 0.744 0.744 0.558 c1.302 -0.434 2.914 -2.604 3.038 -4.34 z M122.38799999999999 46.748 c0.682 -0.062 1.364 -0.062 2.046 -0.124 c0.372 0 0.558 0.124 0.744 0.434 c0.124 0.372 0.372 0.682 0.062 1.054 c-0.558 0.682 -1.116 1.364 -2.17 1.178 l-0.372 0 c-0.806 0 -1.054 0.372 -0.992 1.116 c0.124 1.178 0.124 2.418 0.186 3.596 c0.124 1.364 0.186 2.79 0.372 4.154 c0.124 0.806 0.186 0.806 0.93 0.682 c1.178 -0.248 2.418 -0.558 3.596 -0.806 c0.434 -0.124 0.93 -0.248 1.364 -0.31 c0.744 -0.186 1.178 0.31 1.612 0.744 c0.31 0.372 0.558 0.806 0.248 1.364 c-0.62 1.24 -1.364 1.922 -2.852 1.86 c-1.054 -0.062 -2.17 0.248 -3.224 0.434 c-0.992 0.186 -1.922 0.31 -2.852 0.496 c-0.248 0.062 -0.434 0.186 -0.62 0.31 c-0.248 0.186 -0.434 0.372 -0.682 0.558 c-0.372 0.434 -0.806 0.558 -1.426 0.31 c-1.364 -0.62 -1.922 -1.488 -2.046 -2.976 c-0.372 -3.472 0 -23.002 -0.93 -25.73 c-0.062 -0.558 -0.186 -1.178 -0.372 -1.674 c-0.248 -0.496 -0.062 -0.868 0.186 -1.178 c0.992 -1.178 2.294 -1.674 3.72 -1.86 c0.31 0 0.62 0.124 0.93 0.186 c0.558 0.124 1.116 0.372 1.736 0.372 c0.806 0 1.612 0.062 2.48 0.248 c0.806 0.248 1.674 0.186 2.542 0.248 c0.868 0 1.426 0.62 1.302 1.55 c-0.124 0.682 -1.24 1.55 -1.922 1.55 c-0.372 -0.062 -0.744 -0.186 -1.116 -0.248 c-1.054 -0.186 -2.17 -0.372 -3.224 -0.558 c-0.744 -0.124 -0.868 0 -0.868 0.744 c0.062 0.93 0.248 1.86 0.31 2.79 c0.124 1.55 0.186 3.162 0.248 4.712 c0.062 1.364 0.186 2.666 0.248 4.03 c0.062 0.682 0.062 0.682 0.806 0.744 z M130.076 61.318 c0.372 -2.17 0.806 -4.34 1.178 -6.51 c0.372 -1.798 0.744 -3.472 1.054 -5.332 c0.31 -0.744 2.914 -13.454 3.162 -14.88 c0.186 -0.62 0.062 -1.426 0.062 -2.17 c0 -1.364 0.682 -2.17 2.108 -2.542 c0.062 0 0.186 0 0.434 -0.062 c0.31 -0.124 0.682 -0.31 0.868 -0.186 c0.434 0.248 0.682 0.682 0.93 1.178 c0.186 0.434 0.31 0.992 0.682 1.426 c0.806 2.418 5.084 23.932 5.952 25.172 c0.186 0.744 0.434 1.364 0.744 1.922 c0.186 0.496 -0.496 1.798 -0.93 1.984 c-0.248 0.062 -0.682 0.186 -0.868 0.372 c-0.434 0.31 -0.93 0.434 -1.302 0 c-0.248 -0.186 -0.682 -0.372 -0.992 -0.558 c-0.248 -0.186 -0.434 -0.62 -0.496 -0.868 c-0.93 -2.542 -1.364 -4.96 -2.108 -7.44 c-0.248 -0.434 -0.496 -0.806 -0.992 -0.62 c-0.62 0.062 -1.24 0.186 -1.922 0.186 c-0.62 0 -0.806 0.186 -0.992 0.62 c-0.31 1.798 -0.868 3.596 -1.364 5.332 c-0.062 0.62 -0.186 1.178 -0.062 1.674 c0.186 1.55 -0.806 2.418 -1.674 3.224 c-0.248 0.186 -0.62 0.248 -0.868 0.248 c-1.054 -0.062 -1.798 -0.682 -2.418 -1.55 c-0.124 -0.248 -0.124 -0.434 -0.124 -0.62 l-0.062 0 z M138.38400000000001 42.718 l-0.248 0 c0 0.372 -0.062 0.62 -0.248 0.992 c-0.062 1.55 -0.31 3.162 -0.31 4.588 c-0.124 1.178 0.062 1.302 1.24 1.302 c0.806 0 0.93 -0.124 0.744 -0.93 c-0.124 -0.62 -0.186 -1.364 -0.434 -2.108 c-0.186 -1.302 -0.434 -2.604 -0.744 -3.844 z M152.396 44.454 c0.062 0.806 0.062 1.674 0.124 2.542 c0.31 4.774 0.62 9.486 1.24 14.198 c0.186 1.302 -1.116 2.542 -2.914 2.418 c-2.232 -0.124 -3.41 -1.24 -3.472 -3.286 c-0.186 -8.432 -0.558 -16.43 -1.24 -23.808 c-0.124 -1.302 -0.248 -2.604 -0.434 -3.968 c-0.124 -0.992 0.124 -1.302 1.178 -1.55 c0.496 -0.186 0.992 -0.372 1.488 -0.434 c1.55 -0.372 2.666 0.372 2.914 1.922 c0.558 3.72 0.248 3.472 0.62 7.254 c0.062 0.496 0.31 0.434 0.62 0.31 c0.124 -0.062 0.248 -0.124 0.31 -0.186 c1.736 -1.302 3.472 -2.542 5.146 -3.782 c0.496 -0.372 1.054 -0.806 1.488 -1.24 c0.868 -0.992 1.984 -1.302 3.162 -1.116 c0.806 0.124 1.054 0.434 1.116 1.24 c0.124 1.24 -0.682 2.48 -1.86 3.038 c-1.116 0.558 -2.232 1.178 -3.286 1.798 c-0.806 0.496 -0.806 0.744 -0.434 1.674 c0.372 0.868 0.496 1.736 0.744 2.604 c1.116 4.03 2.232 8.06 3.472 12.028 c0.124 0.62 0.372 1.24 0.682 1.798 c0.744 1.488 -0.682 4.34 -2.542 3.968 c-5.084 -1.054 -5.022 -9.238 -6.2 -13.082 c-0.434 -1.488 -0.992 -2.976 -1.488 -4.464 c-0.124 0.062 -0.248 0.062 -0.434 0.124 z M164.486 54.312 c-0.186 -1.24 0.496 -1.922 1.488 -2.418 c0.62 -0.372 1.24 -0.62 1.922 -0.186 s1.302 0.93 1.178 1.922 c-0.062 0.682 0.062 1.426 0.062 2.17 c0 0.806 0.248 1.426 0.93 1.86 c0.124 0 0.434 -0.124 0.434 -0.186 c0.062 -0.434 0.124 -0.93 0.124 -1.364 c-0.062 -1.674 -0.062 -3.348 -0.31 -4.96 c-0.31 -2.17 -0.744 -4.34 -2.17 -6.076 c-1.116 -1.364 -2.108 -2.79 -3.224 -4.092 c-2.852 -3.41 -0.806 -8.122 2.418 -10.292 c1.55 -1.054 2.666 -1.178 4.464 -0.744 c0.31 0.062 0.682 0.124 0.992 0.124 c0.682 0.062 1.612 0.806 1.736 1.302 c0.186 0.558 -0.31 1.736 -0.744 2.17 c-0.682 0.62 -1.364 0.806 -2.17 0.434 c-0.186 -0.062 -0.372 -0.062 -0.558 -0.124 c-1.364 -0.248 -1.86 0.124 -2.046 1.488 c-0.372 3.162 1.922 4.464 3.534 6.758 c1.798 2.604 2.914 5.642 3.41 8.804 c0.31 1.922 0.62 3.844 0.434 5.828 c-0.186 1.736 -0.868 3.41 -1.984 4.774 c-1.426 1.86 -4.092 1.24 -5.952 0.434 c-3.348 -1.488 -3.72 -4.34 -3.968 -7.626 z"/></g><g id="SvgjsG1009" rel="mainfill" name="main_text" xmlns:name="mainText_mainfill" fill="#ffffff" transform="translate(112.50400033593178, 20.602018356323242)"><path d="M9.176 29.822000000000003 c0.496 0.124 1.054 0.31 1.612 0.372 c1.488 0.248 4.216 2.914 5.022 3.968 c0.31 0.496 0.372 1.054 0.372 1.612 c-0.124 1.798 -0.682 3.224 -2.17 4.278 c-0.496 0.31 -1.054 0.496 -1.612 0.62 c-0.31 0.062 -0.558 0.186 -0.806 0.186 s-0.496 -0.062 -0.744 -0.124 c-0.31 -0.062 -0.62 -0.186 -0.93 -0.31 c-0.248 -0.124 -0.31 -0.248 -0.31 -0.558 c0 -0.372 0.248 -0.434 0.558 -0.558 c0.186 -0.062 0.434 -0.124 0.62 -0.248 c1.984 -0.93 2.542 -5.828 0.93 -7.192 c-0.62 -0.434 -1.24 -0.868 -1.984 -1.054 l-0.372 0 c-0.31 0.062 -0.434 0.186 -0.372 0.558 c0.31 2.604 -2.542 5.456 -0.806 7.998 c0.062 0.062 0.062 0.124 0 0.248 c-0.062 0 0 0.186 0 0.186 c0.062 0.124 0.186 0.248 0.31 0.124 c0.124 -0.062 0.248 -0.062 0.372 0.062 c0.062 0.124 0.062 0.124 0 0.248 c-0.062 0 0 0.124 0 0.186 l0.62 0.62 c0.062 0.124 0.186 0.124 0.31 0.124 c0.062 -0.062 0.062 -0.062 0.124 -0.062 c0 0.062 0 0.062 -0.062 0.124 c-0.062 0.186 0.124 0.496 0.372 0.496 c0 0 0.062 0 0.124 0.062 l0.062 0 l-0.062 0.062 l0 0.186 c0.186 0.248 0.372 0.496 0.558 0.806 l0.062 0 c0.496 0.248 0.682 0.744 1.054 1.054 c0.124 0.124 0.186 0.372 0.372 0.496 c0 0.062 0.124 0.062 0.248 0.062 c0.062 0.062 0.124 0.062 0.186 0.062 c0 0.062 0 0.124 -0.062 0.186 s0 0.186 0.186 0.186 c0.062 0 0.124 0.062 0.186 0.124 c0.062 0 0.186 0.062 0.31 0.062 c0.062 0.062 0.124 0.062 0.062 0.186 c-0.124 0.248 0 0.434 0.124 0.558 c0.062 0.062 0.062 0.124 0.062 0.186 c0.062 0.062 0.186 0.124 0.248 0.186 c0 0.062 0.062 0.124 0.062 0.124 l-0.124 0 s-0.186 -0.062 -0.248 -0.062 c-0.124 0 -0.31 0 -0.434 0.062 c0 0 -0.062 0 -0.062 0.062 c-0.062 0 0 0.062 0 0.062 c0.124 0.186 0.31 0.372 0.434 0.62 c0.124 0.186 0.31 0.372 0.558 0.372 c0.062 0.062 0.124 0.062 0.062 0.186 c0 0.062 0 0.124 0.062 0.186 c0.124 0 0.186 0 0.31 0.062 c0.062 0 0.124 -0.062 0.186 -0.062 c0.186 0 0.31 0 0.248 -0.248 l0.062 -0.062 c0.124 0 0.186 0 0.31 0.062 c0.062 0 0.186 0.062 0.248 0.124 s0.062 0.124 0.062 0.186 c0 0.124 0 0.248 0.124 0.124 c0.062 0 0.124 0 0.124 0.062 c0.124 0.062 0.186 0.186 0.248 0.31 c0.062 0.062 0.062 0.124 0.062 0.248 c0 0.186 0 0.248 0.186 0.248 s0.186 0.062 0.124 0.186 s-0.062 0.31 -0.062 0.434 c0 0.062 0.062 0.124 0.124 0.124 c0.186 0.062 0.186 0.124 0.062 0.248 c0 0 0.062 0.124 0.062 0.186 c0.062 0.062 0.124 0.186 0.124 0.248 c0.062 0.124 0.062 0.248 0.124 0.372 c0 0 0.062 0.062 0.062 0.124 l-0.124 0 c-0.186 -0.062 -0.372 -0.124 -0.62 -0.186 c-0.062 0 -0.124 -0.062 -0.186 0.062 s-0.062 0.248 0.062 0.31 s0.062 0.124 -0.062 0.124 c-0.062 0.124 -0.186 0.186 -0.248 0.248 l0.248 0.248 c0.248 0.062 0.31 0.186 0.248 0.434 c0 0.124 0 0.248 -0.062 0.31 c0 0.124 -0.062 0.186 -0.186 0.062 c-0.186 -0.186 -0.434 -0.434 -0.62 -0.682 c-0.062 0 -0.062 0 -0.124 -0.062 l-0.124 0 l0 0.124 c0.124 0.124 0.186 0.248 0.248 0.372 c0.062 0.062 0.062 0.062 0.062 0.124 c-0.062 0 -0.062 0.062 -0.124 0 c-0.558 -0.124 -1.116 -0.186 -1.612 -0.558 c-0.31 -0.186 -0.62 -0.124 -0.992 -0.248 c-0.31 -0.062 -0.682 -0.186 -1.054 -0.31 c-0.186 -0.062 -0.372 -0.248 -0.434 -0.434 c0.062 0.062 0.186 0.124 0.248 0.186 c0 0.062 0.062 0.062 0.124 0 l0 -0.062 l-0.372 -0.558 l-0.124 0 c0 0 -0.062 0.062 0 0.062 c0 0.124 0.062 0.248 0.124 0.372 c-0.124 -0.186 -0.186 -0.372 -0.31 -0.558 l-0.186 -0.186 l-0.186 -0.372 l0.124 0 l0.124 0 l0 -0.124 c-0.062 -0.124 -0.124 -0.248 -0.248 -0.372 c0 -0.124 -0.062 -0.186 0.124 -0.124 c0 0 0.062 -0.062 0.062 -0.124 s-0.062 -0.062 -0.062 -0.124 c-0.31 -0.496 -0.62 -1.054 -0.93 -1.55 c-0.062 -0.062 -0.186 -0.124 -0.248 -0.186 c-0.124 -0.186 -0.248 -0.31 -0.372 -0.496 l-0.186 -0.186 l0 0.248 c0.124 0.186 0.186 0.372 0.31 0.558 c0.186 0.124 0.248 0.31 0.31 0.496 l0 0.062 l-0.062 -0.062 s-0.062 -0.062 -0.062 -0.124 c-0.186 -0.248 -0.434 -0.558 -0.62 -0.806 c-0.062 -0.186 -0.186 -0.186 -0.372 -0.124 c-0.124 0.062 -0.248 0.186 -0.372 0.31 c-0.062 0.062 -0.124 0.186 -0.124 0.31 c-0.124 1.178 -1.054 2.232 -1.302 3.41 c-1.116 5.332 4.216 12.462 11.718 5.456 c2.232 -2.046 2.356 -4.774 1.612 -7.502 c-0.31 -1.116 -0.868 -2.108 -1.55 -3.038 c-0.62 -0.744 -2.17 -1.612 -1.984 -2.728 c0.062 -0.31 0 -0.434 -0.248 -0.62 c-0.248 -0.124 -0.434 -0.31 -0.62 -0.496 c-0.062 -0.062 -0.062 -0.186 -0.062 -0.248 c0.124 -0.496 0.496 -0.682 1.054 -0.62 c0.248 0.062 0.496 0 0.682 -0.248 c0.062 0 0.124 -0.062 0.248 -0.062 c0.372 0 0.682 -0.124 0.93 -0.372 c0.992 -0.62 1.612 -1.55 2.294 -2.48 c1.116 -1.426 2.542 -2.79 4.402 -3.286 c1.054 -0.31 2.108 -0.31 3.162 0.124 c0.434 0.186 0.93 0.372 1.364 0.558 c0.248 0.062 0.496 0.248 0.682 0.496 c0.372 0.496 0.62 1.054 0.806 1.612 c0.062 0.186 0.062 0.434 0 0.62 c-0.248 0.868 -0.62 1.674 -1.24 2.294 c-0.062 0.062 -0.124 0.124 -0.248 0.186 c-0.186 0.186 -0.434 0.31 -0.62 0.496 c-0.248 0.186 -0.558 0.31 -0.93 0.248 c-0.682 -0.186 -1.116 -0.558 -1.302 -1.24 c-0.062 -0.31 0 -0.558 0.248 -0.682 c0.124 -0.062 0.31 -0.124 0.372 -0.062 c0.496 0.124 0.992 0.062 1.426 0 c0.124 0 0.248 -0.062 0.31 -0.186 c0.372 -0.434 0.372 -1.116 -0.062 -1.612 c-0.434 -0.558 -1.116 -0.868 -1.86 -0.744 c-0.062 0.062 -0.062 0.062 -0.124 0.062 c-1.984 1.55 -3.286 4.154 -5.642 5.208 c-0.062 0.062 -0.124 0.062 -0.186 0.124 s-0.124 0.124 -0.062 0.248 c0.31 0.31 0.62 0.62 0.868 0.93 c0.124 0.124 0.186 0.31 0.31 0.434 c0.062 0.124 0.062 0.186 0.124 0.31 c1.674 3.348 3.472 7.812 1.24 11.408 c-1.984 3.41 -4.278 5.394 -8.122 6.014 c-3.162 0.62 -6.572 1.364 -9.796 0.558 c-1.364 -0.372 -2.418 -1.24 -3.286 -2.294 c-0.868 -1.116 -1.488 -2.418 -1.798 -3.844 c-0.372 -1.674 -0.31 -5.518 -0.186 -6.386 c0.186 -1.984 0.868 -3.782 1.86 -5.456 c0.31 -0.558 0.558 -1.178 0.806 -1.798 c0.062 -0.062 0.062 -0.124 0.062 -0.186 c-0.062 -0.124 -0.062 -0.186 0.062 -0.31 l0.744 -0.558 s0.31 -0.31 0.124 -0.558 s-0.372 -0.496 -0.496 -0.744 c-0.186 -0.372 -0.372 -0.682 -0.434 -1.054 c-0.31 -1.302 0.248 -3.038 0.372 -4.34 c0.124 -0.62 0.496 -1.488 0.806 -2.046 c0.372 -0.682 0.744 -1.302 1.116 -1.984 c0.124 -0.186 0.31 -0.31 0.558 -0.31 c0.558 0 1.178 0 1.736 -0.062 l0.248 0 l0.93 0 z M11.966 49.6 c-0.062 -0.124 -0.124 -0.186 -0.186 -0.31 c-0.744 -1.054 -1.55 -2.17 -2.356 -3.286 c0 -0.062 -0.062 -0.124 -0.124 -0.186 l-0.124 0 l-0.062 0.124 c0.062 0.124 0.124 0.186 0.186 0.248 c0.744 1.116 1.55 2.17 2.356 3.286 c0 0.062 0.062 0.124 0.186 0.124 l0.124 0 z M5.084 39.742000000000004 c0 0.062 0 0.124 0.062 0.124 c0.186 0.372 0.372 0.682 0.558 0.992 c0.062 0 0.124 0.062 0.124 0.062 c0 -0.062 0.062 -0.124 0 -0.124 c-0.062 -0.31 -0.186 -0.558 -0.31 -0.868 c-0.062 -0.062 -0.124 -0.186 -0.186 -0.248 l-0.186 0 z M13.144 45.694 l0 0.062 c-0.062 0 -0.062 -0.062 -0.124 -0.062 l0 -0.062 c0.062 -0.062 0.062 -0.124 0.062 -0.186 c-0.124 0 -0.248 0 -0.248 0.062 c-0.186 0.186 -0.062 0.434 0.186 0.496 c0.124 0.062 0.186 0.124 0.248 0.186 c0.124 0 0.186 0.062 0.248 0 c0.124 -0.062 0.062 -0.124 0 -0.186 l-0.186 -0.186 s-0.124 -0.062 -0.186 -0.124 z M4.836 40.548 c0 -0.062 -0.062 -0.124 -0.062 -0.186 c-0.124 -0.124 -0.186 -0.248 -0.248 -0.372 c-0.062 -0.186 -0.124 -0.31 -0.186 -0.434 c-0.062 -0.062 -0.124 -0.062 -0.248 -0.124 c0.062 0.124 0 0.186 0.062 0.248 c0.124 0.248 0.248 0.496 0.372 0.682 c0.062 0.062 0.124 0.186 0.186 0.248 l0.124 0 l0 -0.062 z M12.214 44.888000000000005 l0 0.062 c0.124 0.062 0.186 0.124 0.31 0.124 c0 0.062 0.062 0.062 0.124 0 s0 -0.248 -0.124 -0.372 c-0.186 -0.062 -0.31 0 -0.31 0.186 z M9.982 30.38 c-0.062 0.062 -0.124 0.062 -0.186 0.062 l0 0.062 c0.248 0.124 0.434 0.186 0.682 0.31 l0.062 -0.062 c0.062 -0.062 0 -0.124 0 -0.124 c-0.186 -0.062 -0.372 -0.186 -0.558 -0.248 z M10.292 42.718 l-0.062 0.062 l0.186 0.372 c0.062 -0.062 0.186 -0.124 0.186 -0.186 c0.062 -0.062 -0.124 -0.248 -0.31 -0.248 z M14.88 48.174 c0.062 -0.062 0.124 -0.062 0.186 -0.124 c0.062 0 0.062 -0.124 0.062 -0.186 l-0.186 0 s-0.124 0.062 -0.186 0.062 c0 0.062 -0.062 0.062 -0.062 0.062 c0 0.062 0.062 0.062 0.062 0.124 c0.062 0 0.124 0 0.124 0.062 z M12.462 45.135999999999996 c0 0.062 -0.124 0.124 -0.124 0.186 s0.124 0.124 0.124 0.186 l0.248 -0.248 c-0.062 -0.062 -0.124 -0.062 -0.248 -0.124 z M10.168 42.47 c-0.124 -0.124 -0.186 -0.186 -0.248 -0.186 c0 0 -0.062 0.062 -0.124 0.062 l0.186 0.186 c0.062 0 0.124 -0.062 0.186 -0.062 z M13.516 45.260000000000005 c-0.062 0.062 -0.124 0.124 -0.186 0.124 s-0.124 -0.062 -0.186 -0.124 c0.124 0 0.124 -0.062 0.248 -0.124 z M11.098 44.082 c-0.062 0.062 -0.062 0.124 -0.124 0.124 c0.062 0.062 0.124 0.124 0.186 0.124 s0.062 -0.062 0.124 -0.062 z M10.478 46.128 c-0.062 0 -0.062 0.062 -0.062 0.062 l0.248 0.248 l0 -0.062 c-0.062 -0.124 -0.124 -0.186 -0.186 -0.248 z M9.052 45.507999999999996 c-0.062 0.062 -0.062 0.062 -0.062 0.124 l0.062 0.062 l0.062 -0.062 c0 -0.062 0 -0.124 -0.062 -0.124 z M11.284 44.391999999999996 c-0.062 0.062 -0.124 0.124 -0.062 0.124 l0 0.062 c0.062 0 0.062 0 0.124 -0.062 c0 0 -0.062 -0.062 -0.062 -0.124 z M11.222 43.896 l0 0.062 c0 0.062 0.062 0.062 0.062 0.124 c0.062 0 0.062 -0.062 0.124 -0.062 c-0.062 -0.062 -0.062 -0.062 -0.186 -0.124 z M9.176 41.602000000000004 l-0.062 -0.062 l-0.062 0.062 c0 0.062 0.062 0.062 0.062 0.062 s0.062 0 0.062 -0.062 z M12.214 47.988 c-0.062 0.062 -0.062 0.062 -0.062 0.124 c0 0 0.062 0 0.062 0.062 l0.062 -0.062 c0 -0.062 -0.062 -0.062 -0.062 -0.124 z M12.896 34.658 c-0.062 0 -0.062 0 -0.062 0.062 c0 0 0 0.062 0.062 0.062 l0 -0.062 l0 -0.062 z M7.874 40.176 c0 0 0.062 0 0.062 -0.062 l-0.062 0 l-0.062 0 c0 0.062 0 0.062 0.062 0.062 z M15.562 48.484 c0.062 0 0.124 0.062 0.124 0.062 c0 -0.062 0.062 -0.062 0.062 -0.062 c0 -0.062 -0.062 -0.062 -0.062 -0.062 c-0.062 0 -0.062 0 -0.124 0.062 z M11.842 44.082 l-0.062 -0.062 l-0.062 0.062 l0.062 0.062 s0.062 0 0.062 -0.062 z M25.172 51.522 c0 0 0 0.062 0.062 0.062 c-0.062 0 -0.062 0.062 -0.062 0.062 l-0.062 -0.062 s0 -0.062 0.062 -0.062 z M11.532 43.834 c0 -0.062 0.062 -0.062 0.062 -0.062 l-0.062 0 l-0.062 0 l0 0.062 l0.062 0 z M16.12 48.484 c-0.062 0 -0.062 -0.062 -0.062 -0.062 l-0.062 0.062 l0.062 0 l0.062 0 z M12.09 44.454 l0 0.062 l0 0 l0.062 0 c0 -0.062 -0.062 -0.062 -0.062 -0.062 z M14.508 46.81 c0 0.062 0.062 0.062 0.124 0.124 c0 0.062 0.062 0.124 0.062 0.186 l0 0.124 s-0.062 -0.062 -0.124 -0.062 c-0.062 -0.062 -0.124 -0.124 -0.186 -0.248 l0 -0.062 c0 -0.062 0.062 -0.062 0.124 -0.062 z M16.802 48.298 c-0.062 0 -0.062 0.062 -0.062 0.062 c-0.062 -0.062 -0.124 -0.124 -0.186 -0.124 c0 -0.062 -0.062 -0.062 -0.062 -0.124 l0 0 c0.124 0.062 0.186 0.124 0.31 0.186 z M14.136 46.686 c-0.062 0 -0.062 -0.062 -0.062 -0.062 l0 0 l0.062 0 l0 0.062 z M9.3 40.548 l0 -0.062 l0.062 0.062 l0 0.062 c0 -0.062 -0.062 -0.062 -0.062 -0.062 z M3.162 37.076 l0 -0.062 c0 0.062 0.062 0.062 0.062 0.062 l0 0.062 c-0.062 0 -0.062 -0.062 -0.062 -0.062 z  M40.61 33.666 c1.054 0.682 0.744 1.55 0.558 2.294 c-1.736 6.324 -1.86 13.33 -0.186 19.778 c0.062 0.372 0.248 0.744 0.434 1.178 c0.062 0.248 0.248 0.248 0.434 0 c0.496 -0.806 1.116 -1.426 1.178 -2.418 c0.124 -0.496 0.372 -0.93 0.93 -1.24 c0.744 -0.31 0.62 -0.124 1.302 0.372 c0.496 0.558 0.31 1.178 0.62 1.736 c0.062 0.124 0.062 0.186 0 0.31 c-0.806 1.612 -1.364 3.534 -2.852 4.898 c-0.682 0.62 -1.178 1.426 -2.232 1.426 c-1.984 0 -3.72 -2.17 -4.216 -3.906 c-0.868 -3.348 -1.488 -6.696 -1.86 -10.044 c-0.372 -3.224 -0.744 -6.758 -0.124 -9.92 c0.31 -1.426 0.496 -3.534 1.178 -4.836 c0.992 -1.674 3.72 -2.232 5.58 -1.984 c0.992 0.124 1.798 0.558 2.604 0.992 c2.17 1.302 2.356 3.72 2.48 6.014 c0 0.434 -0.372 0.744 -0.682 0.744 c-0.62 0.186 -1.24 0.434 -1.86 0.062 c-0.93 -0.434 -1.178 -0.806 -1.054 -1.798 c0.31 -1.178 -0.124 -2.294 -0.682 -3.348 c-0.31 -0.496 -0.806 -0.682 -1.55 -0.31 z M52.824 50.964 c0.062 1.488 0.062 2.976 0.124 4.464 c0.062 1.612 0.248 3.162 0.31 4.774 c0 1.488 -0.372 2.046 -1.488 3.038 c-0.868 0.806 -1.736 0.434 -2.48 -0.186 c-0.558 -0.496 -1.178 -0.992 -1.674 -1.612 c-0.124 -0.186 -0.186 -0.558 -0.124 -0.806 c0.31 -0.93 0.062 -2.914 0.062 -2.914 s-1.24 -15.314 -0.62 -22.878 c0 -0.496 0.62 -0.992 1.054 -1.364 c0.434 -0.31 0.558 -0.496 0.248 -0.992 c-0.248 -0.31 -0.496 -0.93 -0.372 -1.116 c0.31 -0.372 0.806 -0.682 1.302 -0.806 c1.612 -0.434 3.286 -0.434 4.898 0.124 c0.992 0.372 1.922 0.868 2.79 1.364 c4.588 2.542 5.27 8.184 2.294 12.09 c-0.31 0.434 -0.806 0.744 -1.116 1.24 c-0.186 0.372 -0.248 0.868 -0.186 1.302 c0.496 2.232 1.054 4.402 1.488 6.634 c0.744 3.596 1.302 7.254 1.984 10.85 c0.186 0.682 0.496 1.364 0.682 2.108 c0.248 0.744 0.186 1.24 -0.62 1.798 c-2.046 1.55 -3.906 1.24 -5.27 -1.054 c-1.178 -2.108 -0.744 -4.774 -1.178 -7.006 c-0.62 -2.914 -1.24 -5.828 -1.798 -8.742 l-0.186 -0.372 c-0.062 0 -0.062 0 -0.124 0.062 z M56.358 39.804 c0 -0.186 0 -0.62 -0.124 -0.992 c-0.186 -0.744 -0.558 -1.55 -0.682 -2.294 c-0.124 -0.93 -0.62 -1.488 -1.426 -1.86 c-0.434 -0.186 -0.93 -0.372 -1.364 -0.558 c-0.372 -0.124 -0.558 0 -0.496 0.434 c0 0.682 0.062 1.302 0.062 1.984 c0.062 2.356 0.186 4.712 0.248 7.068 c0 0.62 0.124 0.744 0.744 0.558 c1.302 -0.434 2.914 -2.604 3.038 -4.34 z M61.256 61.318 c0.372 -2.17 0.806 -4.34 1.178 -6.51 c0.372 -1.798 0.744 -3.472 1.054 -5.332 c0.31 -0.744 2.914 -13.454 3.162 -14.88 c0.186 -0.62 0.062 -1.426 0.062 -2.17 c0 -1.364 0.682 -2.17 2.108 -2.542 c0.062 0 0.186 0 0.434 -0.062 c0.31 -0.124 0.682 -0.31 0.868 -0.186 c0.434 0.248 0.682 0.682 0.93 1.178 c0.186 0.434 0.31 0.992 0.682 1.426 c0.806 2.418 5.084 23.932 5.952 25.172 c0.186 0.744 0.434 1.364 0.744 1.922 c0.186 0.496 -0.496 1.798 -0.93 1.984 c-0.248 0.062 -0.682 0.186 -0.868 0.372 c-0.434 0.31 -0.93 0.434 -1.302 0 c-0.248 -0.186 -0.682 -0.372 -0.992 -0.558 c-0.248 -0.186 -0.434 -0.62 -0.496 -0.868 c-0.93 -2.542 -1.364 -4.96 -2.108 -7.44 c-0.248 -0.434 -0.496 -0.806 -0.992 -0.62 c-0.62 0.062 -1.24 0.186 -1.922 0.186 c-0.62 0 -0.806 0.186 -0.992 0.62 c-0.31 1.798 -0.868 3.596 -1.364 5.332 c-0.062 0.62 -0.186 1.178 -0.062 1.674 c0.186 1.55 -0.806 2.418 -1.674 3.224 c-0.248 0.186 -0.62 0.248 -0.868 0.248 c-1.054 -0.062 -1.798 -0.682 -2.418 -1.55 c-0.124 -0.248 -0.124 -0.434 -0.124 -0.62 l-0.062 0 z M69.564 42.718 l-0.248 0 c0 0.372 -0.062 0.62 -0.248 0.992 c-0.062 1.55 -0.31 3.162 -0.31 4.588 c-0.124 1.178 0.062 1.302 1.24 1.302 c0.806 0 0.93 -0.124 0.744 -0.93 c-0.124 -0.62 -0.186 -1.364 -0.434 -2.108 c-0.186 -1.302 -0.434 -2.604 -0.744 -3.844 z M79.732 60.512 c-0.248 -6.634 -0.124 -13.454 -0.868 -20.088 c-0.124 -1.178 -0.248 -2.418 -0.372 -3.596 c-0.062 -0.93 -0.062 -0.992 -0.93 -1.116 c-1.116 -0.186 -3.72 0.062 -4.278 -1.178 c-0.186 -0.558 0 -1.24 0.372 -1.736 c1.426 -1.736 4.092 -1.798 6.138 -1.674 c2.356 0.062 4.65 0.124 7.068 0.124 c0.62 0 1.24 0 1.798 0.248 c0.868 0.372 0.992 0.744 0.744 1.736 c-0.062 0.372 -0.248 0.744 -0.31 1.116 c-0.186 1.178 -1.054 1.364 -2.046 1.364 c-0.806 0.062 -1.612 0 -2.418 0.062 s-0.868 0.062 -0.744 0.93 c0.186 1.736 0.372 3.472 0.62 5.208 c0.806 7.068 0.248 10.726 0.868 17.794 c0.434 4.898 -6.572 3.162 -5.642 0.806 z M94.55 46.748 c0.682 -0.062 1.364 -0.062 2.046 -0.124 c0.372 0 0.558 0.124 0.744 0.434 c0.124 0.372 0.372 0.682 0.062 1.054 c-0.558 0.682 -1.116 1.364 -2.17 1.178 l-0.372 0 c-0.806 0 -1.054 0.372 -0.992 1.116 c0.124 1.178 0.124 2.418 0.186 3.596 c0.124 1.364 0.186 2.79 0.372 4.154 c0.124 0.806 0.186 0.806 0.93 0.682 c1.178 -0.248 2.418 -0.558 3.596 -0.806 c0.434 -0.124 0.93 -0.248 1.364 -0.31 c0.744 -0.186 1.178 0.31 1.612 0.744 c0.31 0.372 0.558 0.806 0.248 1.364 c-0.62 1.24 -1.364 1.922 -2.852 1.86 c-1.054 -0.062 -2.17 0.248 -3.224 0.434 c-0.992 0.186 -1.922 0.31 -2.852 0.496 c-0.248 0.062 -0.434 0.186 -0.62 0.31 c-0.248 0.186 -0.434 0.372 -0.682 0.558 c-0.372 0.434 -0.806 0.558 -1.426 0.31 c-1.364 -0.62 -1.922 -1.488 -2.046 -2.976 c-0.372 -3.472 0 -23.002 -0.93 -25.73 c-0.062 -0.558 -0.186 -1.178 -0.372 -1.674 c-0.248 -0.496 -0.062 -0.868 0.186 -1.178 c0.992 -1.178 2.294 -1.674 3.72 -1.86 c0.31 0 0.62 0.124 0.93 0.186 c0.558 0.124 1.116 0.372 1.736 0.372 c0.806 0 1.612 0.062 2.48 0.248 c0.806 0.248 1.674 0.186 2.542 0.248 c0.868 0 1.426 0.62 1.302 1.55 c-0.124 0.682 -1.24 1.55 -1.922 1.55 c-0.372 -0.062 -0.744 -0.186 -1.116 -0.248 c-1.054 -0.186 -2.17 -0.372 -3.224 -0.558 c-0.744 -0.124 -0.868 0 -0.868 0.744 c0.062 0.93 0.248 1.86 0.31 2.79 c0.124 1.55 0.186 3.162 0.248 4.712 c0.062 1.364 0.186 2.666 0.248 4.03 c0.062 0.682 0.062 0.682 0.806 0.744 z M104.09800000000001 54.312 c-0.186 -1.24 0.496 -1.922 1.488 -2.418 c0.62 -0.372 1.24 -0.62 1.922 -0.186 s1.302 0.93 1.178 1.922 c-0.062 0.682 0.062 1.426 0.062 2.17 c0 0.806 0.248 1.426 0.93 1.86 c0.124 0 0.434 -0.124 0.434 -0.186 c0.062 -0.434 0.124 -0.93 0.124 -1.364 c-0.062 -1.674 -0.062 -3.348 -0.31 -4.96 c-0.31 -2.17 -0.744 -4.34 -2.17 -6.076 c-1.116 -1.364 -2.108 -2.79 -3.224 -4.092 c-2.852 -3.41 -0.806 -8.122 2.418 -10.292 c1.55 -1.054 2.666 -1.178 4.464 -0.744 c0.31 0.062 0.682 0.124 0.992 0.124 c0.682 0.062 1.612 0.806 1.736 1.302 c0.186 0.558 -0.31 1.736 -0.744 2.17 c-0.682 0.62 -1.364 0.806 -2.17 0.434 c-0.186 -0.062 -0.372 -0.062 -0.558 -0.124 c-1.364 -0.248 -1.86 0.124 -2.046 1.488 c-0.372 3.162 1.922 4.464 3.534 6.758 c1.798 2.604 2.914 5.642 3.41 8.804 c0.31 1.922 0.62 3.844 0.434 5.828 c-0.186 1.736 -0.868 3.41 -1.984 4.774 c-1.426 1.86 -4.092 1.24 -5.952 0.434 c-3.348 -1.488 -3.72 -4.34 -3.968 -7.626 z"/></g><g id="slogan_text" rel="mainfill" name="slogan_text" xmlns:name="sloganText_mainfill" fill="#ffffff" transform="translate(112.80000019073486, 99.26802635192871)"><path d="M6.16 14.18 l0 5.82 l-1.54 0 l0 -5.82 l-4.42 -8.02 l1.74 0 l3.44 6.48 l3.44 -6.48 l1.74 0 z M16.04 9.8 c3.18 0 4.28 1.64 4.28 5.08 c0 3.64 -0.9 5.32 -4.28 5.32 c-3.36 0 -4.28 -1.68 -4.28 -5.32 c0 -3.44 1.12 -5.08 4.28 -5.08 z M16.04 18.9 c2.38 0 2.74 -1.18 2.74 -4.02 c0 -2.78 -0.6 -3.78 -2.74 -3.78 c-2.12 0 -2.74 1 -2.74 3.78 c0 2.84 0.38 4.02 2.74 4.02 z M29 10 l1.5 0 l0 10 l-1.5 0 l0 -0.7 s-1.5 0.9 -2.96 0.9 c-2.8 0 -3.38 -1.3 -3.38 -4.98 l0 -5.22 l1.5 0 l0 5.2 c0 2.76 0.24 3.66 2.1 3.66 c1.48 0 2.74 -0.74 2.74 -0.74 l0 -8.12 z M33.38 20 l0 -10 l1.48 0 l0 1.36 s1.74 -1.2 3.66 -1.58 l0 1.52 c-1.88 0.38 -3.64 1.36 -3.64 1.36 l0 7.34 l-1.5 0 z  M50.44 14.3 l0 -1.38 l3.82 0 l0 6.8 c-0.42 0.08 -2.98 0.48 -4.5 0.48 c-4.24 0 -5.36 -2.6 -5.36 -7.08 c0 -4.6 1.16 -7.16 5.32 -7.16 c2.1 0 4.54 0.52 4.54 0.52 l-0.06 1.28 s-2.48 -0.42 -4.3 -0.42 c-3.2 0 -3.9 1.86 -3.9 5.78 c0 3.84 0.68 5.72 3.88 5.72 c1 0 2.34 -0.18 2.86 -0.28 l0 -4.26 l-2.3 0 z M60.86 9.8 c3.18 0 4.28 1.64 4.28 5.08 c0 3.64 -0.9 5.32 -4.28 5.32 c-3.36 0 -4.28 -1.68 -4.28 -5.32 c0 -3.44 1.12 -5.08 4.28 -5.08 z M60.86 18.9 c2.38 0 2.74 -1.18 2.74 -4.02 c0 -2.78 -0.6 -3.78 -2.74 -3.78 c-2.12 0 -2.74 1 -2.74 3.78 c0 2.84 0.38 4.02 2.74 4.02 z M75.96000000000001 20 l-8.44 0 l0 -1.3 l3.86 -4.06 c1.64 -1.7 2.66 -2.78 2.66 -4.34 c0 -1.76 -0.98 -2.32 -2.88 -2.32 c-1.46 0 -3.42 0.44 -3.42 0.44 l-0.12 -1.28 s1.9 -0.54 3.82 -0.54 c2.78 0 4.18 1.06 4.18 3.54 c0 1.98 -0.9 3.14 -2.76 4.94 l-3.52 3.58 l6.62 0 l0 1.34 z  M88.38000000000001 20 l-4.94 0 l0 -13.84 l4.94 0 c4.02 0 5.12 2.8 5.12 6.72 c0 3.96 -1.04 7.12 -5.12 7.12 z M91.92000000000002 12.879999999999999 c0 -3 -0.66 -5.36 -3.54 -5.36 l-3.4 0 l0 11.12 l3.4 0 c2.88 0 3.54 -2.76 3.54 -5.76 z M98.78000000000002 6.16 l0.02 11.94 c0 3 -1.16 3.34 -3.8 3.34 l0 -1.38 c1.82 0 2.26 -0.12 2.26 -2.18 l0 -11.72 l1.52 0 z"/></g><defs id="SvgjsDefs1002"><linearGradient id="SvgjsLinearGradient1012"><stop id="SvgjsStop1013" stop-color="#b88746" offset="0"/><stop id="SvgjsStop1014" stop-color="#fdf5a6" offset="1"/></linearGradient></defs><g id="SvgjsG1011" rel="mainfill" name="symbol" xmlns:name="symbol_mainfill" fill="url(#SvgjsLinearGradient1012)" transform="translate(-5.444444444444437, 5.909568998548727) scale(1.0888888888888888)"><path xmlns="http://www.w3.org/2000/svg" d="M89.571,71.412l0.013,0.007C93.038,65.05,95,57.754,95,50C95,25.147,74.853,5,50,5c-7.754,0-15.05,1.962-21.419,5.416  l0.007,0.013c-7.666,4.165-13.994,10.493-18.159,18.159l-0.013-0.007C6.962,34.95,5,42.246,5,50c0,24.853,20.147,45,45,45  c7.754,0,15.05-1.962,21.419-5.416l-0.007-0.013C79.078,85.406,85.406,79.078,89.571,71.412z M70.44,87.822L59.873,68.801  c3.803-2.005,6.923-5.125,8.928-8.928L87.822,70.44C83.839,77.781,77.781,83.839,70.44,87.822z M70.25,50  c0,11.166-9.084,20.25-20.25,20.25S29.75,61.166,29.75,50S38.834,29.75,50,29.75S70.25,38.834,70.25,50z M29.56,12.177  l10.568,19.022c-3.803,2.005-6.923,5.125-8.928,8.928L12.177,29.56C16.161,22.219,22.219,16.161,29.56,12.177z"/><path xmlns="http://www.w3.org/2000/svg" d="M30.25,50c0,10.891,8.86,19.75,19.75,19.75c10.891,0,19.75-8.859,19.75-19.75c0-10.89-8.859-19.75-19.75-19.75  C39.11,30.25,30.25,39.11,30.25,50z M50,34.079c8.779,0,15.921,7.142,15.921,15.921c0,8.779-7.142,15.921-15.921,15.921  c-8.779,0-15.921-7.142-15.921-15.921C34.079,41.221,41.221,34.079,50,34.079z"/><path xmlns="http://www.w3.org/2000/svg" d="M38.367,50c0,6.414,5.218,11.633,11.633,11.633c6.414,0,11.633-5.219,11.633-11.633c0-6.415-5.219-11.633-11.633-11.633  C43.585,38.367,38.367,43.585,38.367,50z M50,38.867c6.139,0,11.133,4.994,11.133,11.133S56.139,61.133,50,61.133  S38.867,56.139,38.867,50S43.861,38.867,50,38.867z"/><path xmlns="http://www.w3.org/2000/svg" d="M48.646,50c0,0.747,0.607,1.354,1.354,1.354s1.354-0.608,1.354-1.354S50.747,48.646,50,48.646S48.646,49.253,48.646,50z   M50.954,50c0,0.526-0.428,0.954-0.954,0.954c-0.526,0-0.954-0.428-0.954-0.954c0-0.526,0.428-0.954,0.954-0.954  C50.526,49.046,50.954,49.474,50.954,50z"/></g>
            </g>
        </svg>
    